<?xml version="1.0" encoding="iso-8859-1"?>
<!-- Generator: Adobe Illustrator 19.0.0, SVG Export Plug-In . SVG Version: 6.00 Build 0)  -->
<svg version="1.1" id="Layer_1" xmlns="http://www.w3.org/2000/svg" xmlns:xlink="http://www.w3.org/1999/xlink" x="0px" y="0px"
	 viewBox="0 0 512 512" style="enable-background:new 0 0 512 512;" xml:space="preserve">
<path style="fill:#420868;" d="M135.5,120.502c-74.715,0-135.5,60.785-135.5,135.5s60.785,135.5,135.5,135.5c8.284,0,15-6.717,15-15
	c0-4.143-1.679-7.893-4.394-10.607l99.289-99.287c2.714,2.715,6.464,4.395,10.607,4.395c8.284,0,15-6.717,15-15
	C271.002,181.287,210.216,120.502,135.5,120.502z"/>
<g>
	<path style="fill:#6A269B;" d="M376.502,120.502c-74.715,0-135.5,60.785-135.5,135.5c0,8.283,6.716,15,15,15
		c4.142,0,7.892-1.68,10.606-4.395l99.287,99.287c-2.715,2.715-4.393,6.465-4.393,10.607c0,8.283,6.716,15,15,15
		c74.714,0,135.498-60.785,135.498-135.5C512,181.287,451.216,120.502,376.502,120.502z"/>
	<path style="fill:#6A269B;" d="M256.002,241.002c-74.716,0-135.502,60.786-135.502,135.5C120.5,451.216,181.286,512,256.002,512
		c74.715,0,135.5-60.784,135.5-135.498C391.502,301.787,330.717,241.002,256.002,241.002z"/>
</g>
<path style="fill:#420868;" d="M256.002,241.002H256V512h0.002c74.715,0,135.5-60.784,135.5-135.498
	C391.502,301.787,330.717,241.002,256.002,241.002z"/>
<path style="fill:#2D2D30;" d="M282.314,332.418c-1.883-5.79-6.956-9.641-12.641-10.265c-2.349-5.215-7.581-8.853-13.672-8.853
	s-11.322,3.637-13.672,8.852c-5.688,0.621-10.764,4.475-12.646,10.268c-1.882,5.793-0.041,11.892,4.192,15.738
	c-1.166,5.6,0.928,11.618,5.854,15.199c2.663,1.936,5.749,2.867,8.807,2.867c2.604,0,5.176-0.699,7.46-2.006
	c2.285,1.307,4.857,2.006,7.461,2.006c3.055,0,6.14-0.931,8.801-2.863c4.93-3.58,7.027-9.601,5.861-15.202
	C282.355,344.313,284.197,338.212,282.314,332.418z"/>
<path style="fill:#91DC5A;" d="M357.547,12.167c-1.523-6.081-6.666-10.573-12.896-11.265C344.318,0.866,336.393,0,324.877,0
	c-27.512-0.001-65.012,4.698-87.426,27.077c-41.959,41.9-26.717,108.876-26.047,111.706c1.35,5.704,5.896,10.101,11.645,11.255
	c0.428,0.085,10.625,2.099,25.094,2.099c23.994,0,57.967-5.362,83.543-30.904C373.736,79.24,358.227,14.887,357.547,12.167z"/>
<path style="fill:#6DC82A;" d="M357.547,12.167c-0.682-2.718-2.09-5.115-3.99-7.001L214.17,144.552
	c2.168,2.779,5.289,4.765,8.879,5.486c0.428,0.085,10.625,2.099,25.094,2.099c23.994,0,57.967-5.362,83.543-30.904
	C373.736,79.24,358.227,14.887,357.547,12.167z"/>
<path style="fill:#1D1D1F;" d="M282.314,332.418c-1.883-5.79-6.956-9.641-12.641-10.265c-2.349-5.215-7.581-8.853-13.672-8.853H256
	v50.918c2.285,1.307,4.856,2.006,7.459,2.006c3.055,0,6.14-0.931,8.801-2.863c4.93-3.58,7.027-9.601,5.861-15.202
	C282.355,344.313,284.197,338.212,282.314,332.418z"/>
<g>
</g>
<g>
</g>
<g>
</g>
<g>
</g>
<g>
</g>
<g>
</g>
<g>
</g>
<g>
</g>
<g>
</g>
<g>
</g>
<g>
</g>
<g>
</g>
<g>
</g>
<g>
</g>
<g>
</g>
</svg>
