<?xml version="1.0" standalone="no"?>
<!DOCTYPE svg PUBLIC "-//W3C//DTD SVG 1.0//EN" "http://www.w3.org/TR/2001/REC-SVG-20010904/DTD/svg10.dtd">
<svg xmlns="http://www.w3.org/2000/svg" xmlns:xlink="http://www.w3.org/1999/xlink" id="body_1" width="31" height="23">

<g transform="matrix(0.10553896 0 0 0.10553896 3.999999 -0)">
	<g>
	</g>
    <path d="M212.39 101.703C 217.413 96.806 219.187 89.62 217.019 82.948006C 214.851 76.27601 209.192 71.505005 202.25 70.496L202.25 70.496L149.281 62.799004C 149.184 62.785004 149.10101 62.724003 149.058 62.637005L149.058 62.637005L125.371 14.64C 122.267 8.349 115.98 4.44 108.964 4.44C 101.94799 4.44 95.662 8.349 92.558 14.64L92.558 14.64L68.87 62.637C 68.827 62.724003 68.744 62.784 68.647 62.799L68.647 62.799L15.679005 70.496C 8.737005 71.505005 3.0780048 76.276 0.9100046 82.948C -1.2579956 89.619995 0.5160046 96.806 5.539005 101.702995L5.539005 101.702995L43.867004 139.064C 43.937004 139.13199 43.969006 139.23 43.952003 139.32599L43.952003 139.32599L34.904003 192.081C 33.718002 198.995 36.508003 205.85199 42.183002 209.97499C 47.859 214.09999 55.242004 214.63199 61.451004 211.368L61.451004 211.368L108.827 186.461C 108.913 186.415 109.017006 186.416 109.103004 186.461L109.103004 186.461L156.479 211.368C 159.18001 212.788 162.102 213.489 165.01001 213.489C 168.787 213.489 172.54001 212.305 175.746 209.975C 181.421 205.852 184.21 198.99501 183.02501 192.08L183.02501 192.08L173.977 139.326C 173.96 139.23001 173.99301 139.132 174.06201 139.06401L174.06201 139.06401L212.39 101.703zM156.235 142.368L165.283 195.122C 165.307 195.262 165.31401 195.304 165.16501 195.41199C 165.016 195.51999 164.97801 195.49998 164.85301 195.43399L164.85301 195.43399L117.47601 170.52599C 112.14601 167.72499 105.78101 167.72499 100.44901 170.52599L100.44901 170.52599L53.073013 195.43298C 52.948013 195.49799 52.910015 195.51898 52.761013 195.41098C 52.612015 195.30298 52.619015 195.26099 52.643013 195.12198L52.643013 195.12198L61.691013 142.36697C 62.709015 136.43097 60.742012 130.37798 56.429012 126.17297L56.429012 126.17297L18.103 88.813C 18.002 88.714005 17.971 88.685005 18.028 88.51C 18.085 88.335 18.127 88.329 18.267 88.308L18.267 88.308L71.235 80.611C 77.196 79.745 82.346 76.004 85.011 70.603L85.011 70.603L108.699005 22.604996C 108.76201 22.478996 108.78001 22.439995 108.964005 22.439995C 109.148 22.439995 109.16701 22.478994 109.229004 22.604996L109.229004 22.604996L132.917 70.603C 135.58301 76.004 140.73201 79.745995 146.69301 80.611L146.69301 80.611L199.66101 88.308C 199.80101 88.329 199.84302 88.335 199.90001 88.51C 199.95702 88.685005 199.92601 88.715004 199.82501 88.813L199.82501 88.813L161.49701 126.174C 157.185 130.378 155.218 136.432 156.235 142.368z" stroke="none" fill="#000000" fill-rule="nonzero" />
</g>
</svg>