<?xml version="1.0" standalone="no"?>
<!DOCTYPE svg PUBLIC "-//W3C//DTD SVG 1.0//EN" "http://www.w3.org/TR/2001/REC-SVG-20010904/DTD/svg10.dtd">
<svg xmlns="http://www.w3.org/2000/svg" xmlns:xlink="http://www.w3.org/1999/xlink" id="body_1" width="31" height="23">

<g transform="matrix(0.049268477 0 0 0.049268477 3.4780004 -0.49268472)">
	<g>
	</g>
    <path d="M471.563 173.778L326.063 152.978L261.663 20.977997C 253.663 5.577997 231.663 8.777997 226.36299 20.977997L226.36299 20.977997L161.96298 152.978L16.362976 173.778C -0.037023544 174.778 -5.2370243 194.678 5.9629765 206.978L5.9629765 206.978L110.962975 309.878L85.962975 454.378C 83.06297 472.17798 102.66298 482.17798 114.06297 475.17798L114.06297 475.17798L243.96297 406.57797L373.86298 474.17798C 387.46298 481.17798 403.66296 471.378 401.96298 454.47797L401.96298 454.47797L376.96298 309.87796L481.96298 206.97797C 494.663 193.478 485.563 175.478 471.563 173.778zM342.663 288.078C 338.46298 293.278 336.46298 299.478 337.46298 305.778L337.46298 305.778L357.163 422.178L253.263 367.078C 246.563 364.278 240.263 364.278 234.563 367.078L234.563 367.078L130.663 422.178L150.36299 305.778C 151.36299 298.47803 149.36299 292.278 145.163 288.078L145.163 288.078L61.062996 205.978L177.463 189.37799C 183.663 188.37799 188.86299 185.178 192.063 178.978L192.063 178.978L244.063 73.978L296.063 178.978C 299.163 184.178 304.36298 188.37799 310.663 189.37799L310.663 189.37799L426.86298 205.978L342.663 288.078z" stroke="none" fill="#000000" fill-rule="nonzero" />
</g>
</svg>