<?xml version="1.0" standalone="no"?>
<!DOCTYPE svg PUBLIC "-//W3C//DTD SVG 1.0//EN" "http://www.w3.org/TR/2001/REC-SVG-20010904/DTD/svg10.dtd">
<svg xmlns="http://www.w3.org/2000/svg" xmlns:xlink="http://www.w3.org/1999/xlink" id="body_1" width="31" height="23">

<g transform="matrix(0.06970923 0 0 0.06970923 3.9999998 -0)">
	<g>
	</g>
    <path d="M329.208 126.666C 327.443 121.235 322.749 117.277 317.099 116.457L317.099 116.457L221.27701 102.535L178.423 15.698006C 175.89601 10.578006 170.681 7.336005 164.972 7.336005C 159.262 7.336005 154.047 10.578005 151.521 15.698006L151.521 15.698006L108.67 102.534004L12.845001 116.456C 7.195001 117.277 2.500001 121.235 0.736001 126.665C -1.027999 132.09601 0.443001 138.057 4.532001 142.042L4.532001 142.042L73.870995 209.62401L57.496 305.07C 56.531 310.698 58.843998 316.385 63.462997 319.741C 66.076 321.63998 69.171 322.606 72.281 322.606C 74.668 322.606 77.064995 322.037 79.259995 320.883L79.259995 320.883L164.971 275.824L250.681 320.883C 252.88899 322.044 255.307 322.597 257.702 322.606C 265.977 322.594 272.681 315.883 272.681 307.606C 272.681 306.45398 272.551 305.331 272.305 304.254L272.305 304.254L256.072 209.625L325.41098 142.04199C 329.501 138.057 330.972 132.096 329.208 126.666z" stroke="none" fill="#000000" fill-rule="nonzero" />
</g>
</svg>