<?xml version="1.0" standalone="no"?>
<!DOCTYPE svg PUBLIC "-//W3C//DTD SVG 1.0//EN" "http://www.w3.org/TR/2001/REC-SVG-20010904/DTD/svg10.dtd">
<svg xmlns="http://www.w3.org/2000/svg" xmlns:xlink="http://www.w3.org/1999/xlink" id="body_1" width="31" height="23">

<g transform="matrix(1.0732617 0 0 1.0732617 1.3168453 -3.2197852)">
	<g>
	</g>
    <path d="M14.43734 3.103487C 14.634552 3.200817 14.79418 3.3604448 14.89151 3.5576572L14.89151 3.5576572L17.815378 9.482061L24.353346 10.432083C 24.89989 10.511501 25.278572 11.018944 25.199154 11.565489C 25.16753 11.783126 25.065042 11.984268 24.907558 12.137776L24.907558 12.137776L20.176641 16.749283L21.293459 23.260832C 21.38682 23.805168 21.021233 24.322124 20.476896 24.415485C 20.26014 24.452662 20.03717 24.417347 19.84251 24.315008L19.84251 24.315008L13.994774 21.240671L8.1470375 24.315008C 7.6581936 24.57201 7.053566 24.384062 6.7965655 23.895218C 6.6942263 23.700558 6.6589117 23.477589 6.6960883 23.260832L6.6960883 23.260832L7.8129067 16.749283L3.0819888 12.137776C 2.6865053 11.752275 2.678413 11.119163 3.063914 10.723679C 3.2174227 10.5661955 3.4185653 10.463708 3.636202 10.432083L3.636202 10.432083L10.17417 9.482061L13.098038 3.5576572C 13.342461 3.0624037 13.942086 2.8590646 14.43734 3.103487z" stroke="none" fill="#212121" fill-rule="nonzero" />
</g>
</svg>